<svg width="16" height="10" viewBox="0 0 16 10" fill="none" xmlns="http://www.w3.org/2000/svg">
<path d="M1.25894 6.60102C1.94094 3.32602 4.79194 0.999024 7.99894 0.999024C11.2049 0.999024 14.0559 3.32602 14.7389 6.60102C14.766 6.73098 14.8436 6.84487 14.9546 6.91763C15.0656 6.99039 15.201 7.01608 15.3309 6.98902C15.4609 6.96197 15.5748 6.8844 15.6475 6.77338C15.7203 6.66236 15.746 6.52698 15.7189 6.39702C14.9419 2.67202 11.6919 -0.00097621 7.99894 -0.000976324C4.30594 -0.000976438 1.05594 2.67202 0.278938 6.39702C0.251886 6.52698 0.277567 6.66236 0.350331 6.77338C0.423095 6.8844 0.536982 6.96197 0.666938 6.98902C0.796894 7.01608 0.932274 6.99039 1.0433 6.91763C1.15432 6.84487 1.23189 6.73098 1.25894 6.60102ZM7.98894 2.99902C8.9172 2.99902 9.80744 3.36777 10.4638 4.02415C11.1202 4.68053 11.4889 5.57077 11.4889 6.49902C11.4889 7.42728 11.1202 8.31752 10.4638 8.9739C9.80744 9.63027 8.9172 9.99902 7.98894 9.99902C7.06068 9.99902 6.17044 9.63027 5.51406 8.9739C4.85769 8.31752 4.48894 7.42728 4.48894 6.49902C4.48894 5.57077 4.85769 4.68053 5.51407 4.02415C6.17044 3.36777 7.06068 2.99902 7.98894 2.99902Z" fill="#6C6C6C"/>
</svg>
