<svg width="14" height="14" viewBox="0 0 14 14" fill="none" xmlns="http://www.w3.org/2000/svg">
<path d="M0.480961 0.479235C0.396283 0.563893 0.344797 0.676129 0.335866 0.795535C0.326935 0.914941 0.361152 1.03359 0.432294 1.1299L0.480961 1.1859L3.1703 3.8759C1.85898 4.79499 0.922885 6.15593 0.533627 7.70923C0.503614 7.8371 0.52512 7.97165 0.593498 8.08379C0.661876 8.19593 0.771634 8.27667 0.899052 8.30854C1.02647 8.34042 1.16131 8.32088 1.27444 8.25414C1.38757 8.18741 1.4699 8.07884 1.50363 7.9519C1.84956 6.57324 2.70156 5.3752 3.8903 4.5959L5.09696 5.80257C4.61496 6.30623 4.34936 6.97862 4.35704 7.67572C4.36473 8.37281 4.6451 9.03918 5.1381 9.53209C5.63109 10.025 6.29751 10.3053 6.99461 10.3128C7.69171 10.3204 8.36405 10.0547 8.86763 9.57257L12.8136 13.5192C12.9028 13.6087 13.0226 13.6611 13.1489 13.6658C13.2751 13.6706 13.3985 13.6273 13.4942 13.5448C13.5899 13.4623 13.6508 13.3466 13.6646 13.2211C13.6785 13.0955 13.6443 12.9693 13.569 12.8679L13.5203 12.8119L9.44496 8.7359L9.44563 8.73457L4.8123 4.1039L4.81363 4.10257L4.0583 3.34923L1.18763 0.479235C1.09388 0.385601 0.966795 0.333008 0.834294 0.333008C0.701794 0.333008 0.574711 0.385601 0.480961 0.479235ZM7.00096 2.6659C6.3343 2.6659 5.68763 2.76457 5.07496 2.94923L5.89963 3.77323C7.326 3.49081 8.80635 3.76729 10.0346 4.54552C11.2629 5.32375 12.1451 6.54421 12.499 7.95457C12.5335 8.08052 12.616 8.18796 12.7287 8.25391C12.8414 8.31986 12.9755 8.33908 13.1022 8.30747C13.2289 8.27585 13.3382 8.19591 13.4068 8.08474C13.4753 7.97356 13.4976 7.83998 13.469 7.71257C13.1074 6.27087 12.2747 4.99127 11.1028 4.07695C9.93099 3.16263 8.48729 2.66599 7.00096 2.6659ZM7.13096 5.0059L9.66496 7.53923C9.63218 6.87783 9.35467 6.25224 8.88635 5.78405C8.41804 5.31586 7.79237 5.03851 7.13096 5.0059Z" fill="#6C6C6C"/>
</svg>
